<svg xmlns="http://www.w3.org/2000/svg" style="display:none">
  <symbol id="icon-moderation" viewBox="0 0 24 24">
    <path d="M12 3l7 4v5c0 4.4-2.8 8.2-7 9-4.2-.8-7-4.6-7-9V7l7-4Z" fill="none" stroke="currentColor" stroke-width="1.8" stroke-linejoin="round"/>
    <path d="M9 12l2 2 4-4" fill="none" stroke="currentColor" stroke-width="1.8" stroke-linecap="round" stroke-linejoin="round"/>
  </symbol>
  <symbol id="icon-search" viewBox="0 0 24 24">
    <circle cx="11" cy="11" r="6.5" fill="none" stroke="currentColor" stroke-width="1.8"/>
    <path d="M16 16l4 4" fill="none" stroke="currentColor" stroke-width="1.8" stroke-linecap="round"/>
  </symbol>
  <symbol id="icon-customizable" viewBox="0 0 24 24">
    <path d="M4 20l4.5-1 10.5-10.5a1.8 1.8 0 0 0 0-2.5l-.5-.5a1.8 1.8 0 0 0-2.5 0L5.5 15 4 20Z" fill="none" stroke="currentColor" stroke-width="1.8" stroke-linejoin="round"/>
    <path d="M14.5 6.5l3 3" fill="none" stroke="currentColor" stroke-width="1.8" stroke-linecap="round"/>
  </symbol>
  <symbol id="icon-analytics" viewBox="0 0 24 24">
    <path d="M4 20h16" fill="none" stroke="currentColor" stroke-width="1.8" stroke-linecap="round"/>
    <path d="M7 17v-5" fill="none" stroke="currentColor" stroke-width="1.8" stroke-linecap="round"/>
    <path d="M12 17V7" fill="none" stroke="currentColor" stroke-width="1.8" stroke-linecap="round"/>
    <path d="M17 17v-8" fill="none" stroke="currentColor" stroke-width="1.8" stroke-linecap="round"/>
  </symbol>
  <symbol id="icon-management" viewBox="0 0 24 24">
    <path d="M12 3l7 4v10l-7 4-7-4V7l7-4Z" fill="none" stroke="currentColor" stroke-width="1.8" stroke-linejoin="round"/>
    <path d="M9 12h6" fill="none" stroke="currentColor" stroke-width="1.8" stroke-linecap="round"/>
  </symbol>
  <symbol id="icon-utility" viewBox="0 0 24 24">
    <path d="M12 4v16" fill="none" stroke="currentColor" stroke-width="1.8" stroke-linecap="round"/>
    <path d="M4 12h16" fill="none" stroke="currentColor" stroke-width="1.8" stroke-linecap="round"/>
    <path d="M7 7l10 10" fill="none" stroke="currentColor" stroke-width="1.8" stroke-linecap="round"/>
    <path d="M17 7L7 17" fill="none" stroke="currentColor" stroke-width="1.8" stroke-linecap="round"/>
  </symbol>
  <symbol id="icon-user" viewBox="0 0 24 24">
    <circle cx="12" cy="8" r="3.5" fill="none" stroke="currentColor" stroke-width="1.8"/>
    <path d="M5.5 20a6.5 6.5 0 0 1 13 0" fill="none" stroke="currentColor" stroke-width="1.8" stroke-linecap="round"/>
  </symbol>
  <symbol id="icon-robot" viewBox="0 0 24 24">
    <rect x="5.5" y="7.5" width="13" height="10" rx="2.5" fill="none" stroke="currentColor" stroke-width="1.8"/>
    <path d="M12 4v3" fill="none" stroke="currentColor" stroke-width="1.8" stroke-linecap="round"/>
    <circle cx="9" cy="12.5" r="1.1" fill="none" stroke="currentColor" stroke-width="1.8"/>
    <circle cx="15" cy="12.5" r="1.1" fill="none" stroke="currentColor" stroke-width="1.8"/>
    <path d="M9 16h6" fill="none" stroke="currentColor" stroke-width="1.8" stroke-linecap="round"/>
  </symbol>
  <symbol id="icon-member" viewBox="0 0 24 24">
    <circle cx="10" cy="8" r="3" fill="none" stroke="currentColor" stroke-width="1.8"/>
    <path d="M4.5 20a5.5 5.5 0 0 1 11 0" fill="none" stroke="currentColor" stroke-width="1.8" stroke-linecap="round"/>
    <path d="M16 9h4" fill="none" stroke="currentColor" stroke-width="1.8" stroke-linecap="round"/>
    <path d="M18 7v4" fill="none" stroke="currentColor" stroke-width="1.8" stroke-linecap="round"/>
  </symbol>
  <symbol id="icon-role" viewBox="0 0 24 24">
    <path d="M6 4h9l3 4-3 4H6z" fill="none" stroke="currentColor" stroke-width="1.8" stroke-linejoin="round"/>
    <path d="M9 8h6" fill="none" stroke="currentColor" stroke-width="1.8" stroke-linecap="round"/>
    <path d="M6 12v8" fill="none" stroke="currentColor" stroke-width="1.8" stroke-linecap="round"/>
  </symbol>
  <symbol id="icon-config" viewBox="0 0 24 24">
    <circle cx="12" cy="12" r="3" fill="none" stroke="currentColor" stroke-width="1.8"/>
    <path d="M12 3v2M12 19v2M3 12h2M19 12h2M5.8 5.8l1.4 1.4M16.8 16.8l1.4 1.4M18.2 5.8l-1.4 1.4M7.2 16.8l-1.4 1.4" fill="none" stroke="currentColor" stroke-width="1.5" stroke-linecap="round"/>
  </symbol>
  <symbol id="icon-star" viewBox="0 0 24 24">
    <path d="M12 3l2.6 5.3 5.9.9-4.3 4.2 1 5.9-5.2-2.7-5.2 2.7 1-5.9-4.3-4.2 5.9-.9L12 3Z" fill="none" stroke="currentColor" stroke-width="1.8" stroke-linejoin="round"/>
  </symbol>
  <symbol id="icon-creativity" viewBox="0 0 24 24">
    <path d="M12 3l1.9 5.8H20l-4.6 3.4 1.8 5.8L12 14.8 6.8 18l1.8-5.8L4 8.8h6.1L12 3Z" fill="none" stroke="currentColor" stroke-width="1.8" stroke-linejoin="round"/>
  </symbol>
  <symbol id="icon-performance" viewBox="0 0 24 24">
    <path d="M5 16a7 7 0 0 1 14 0" fill="none" stroke="currentColor" stroke-width="1.8" stroke-linecap="round"/>
    <path d="M12 12l4.8-4.8" fill="none" stroke="currentColor" stroke-width="1.8" stroke-linecap="round"/>
    <circle cx="12" cy="16" r="1.4" fill="none" stroke="currentColor" stroke-width="1.8"/>
  </symbol>
  <symbol id="icon-secure" viewBox="0 0 24 24">
    <path d="M12 3l7 4v5c0 4.4-2.8 8.2-7 9-4.2-.8-7-4.6-7-9V7l7-4Z" fill="none" stroke="currentColor" stroke-width="1.8" stroke-linejoin="round"/>
    <path d="M9.5 12.2l1.8 1.8 3.3-3.6" fill="none" stroke="currentColor" stroke-width="1.8" stroke-linecap="round" stroke-linejoin="round"/>
  </symbol>
  <symbol id="icon-scalable" viewBox="0 0 24 24">
    <path d="M4 9V4h5" fill="none" stroke="currentColor" stroke-width="1.8" stroke-linecap="round" stroke-linejoin="round"/>
    <path d="M20 15v5h-5" fill="none" stroke="currentColor" stroke-width="1.8" stroke-linecap="round" stroke-linejoin="round"/>
    <path d="M19 5l-6 6" fill="none" stroke="currentColor" stroke-width="1.8" stroke-linecap="round"/>
    <path d="M5 19l6-6" fill="none" stroke="currentColor" stroke-width="1.8" stroke-linecap="round"/>
  </symbol>
  <symbol id="icon-easy" viewBox="0 0 24 24">
    <path d="M4 12h16" fill="none" stroke="currentColor" stroke-width="1.8" stroke-linecap="round"/>
    <path d="M12 4v16" fill="none" stroke="currentColor" stroke-width="1.8" stroke-linecap="round"/>
    <path d="M8 8l4-4 4 4" fill="none" stroke="currentColor" stroke-width="1.8" stroke-linecap="round" stroke-linejoin="round"/>
  </symbol>
  <symbol id="icon-updates" viewBox="0 0 24 24">
    <path d="M4 12a8 8 0 0 1 13.7-5.7L20 8.6" fill="none" stroke="currentColor" stroke-width="1.8" stroke-linecap="round" stroke-linejoin="round"/>
    <path d="M20 12a8 8 0 0 1-13.7 5.7L4 15.4" fill="none" stroke="currentColor" stroke-width="1.8" stroke-linecap="round" stroke-linejoin="round"/>
  </symbol>
  <symbol id="icon-support" viewBox="0 0 24 24">
    <path d="M4 12a8 8 0 0 1 16 0v3a2 2 0 0 1-2 2h-2v-5h2" fill="none" stroke="currentColor" stroke-width="1.8" stroke-linecap="round" stroke-linejoin="round"/>
    <path d="M6 12v3a2 2 0 0 0 2 2h2" fill="none" stroke="currentColor" stroke-width="1.8" stroke-linecap="round" stroke-linejoin="round"/>
  </symbol>
  <symbol id="icon-reliability" viewBox="0 0 24 24">
    <path d="M12 3l7 4v5c0 4.4-2.8 8.2-7 9-4.2-.8-7-4.6-7-9V7l7-4Z" fill="none" stroke="currentColor" stroke-width="1.8" stroke-linejoin="round"/>
    <path d="M9 11h6" fill="none" stroke="currentColor" stroke-width="1.8" stroke-linecap="round"/>
  </symbol>
  <symbol id="icon-innovation" viewBox="0 0 24 24">
    <path d="M12 4a6 6 0 0 0-4 10.5V17h8v-2.5A6 6 0 0 0 12 4Z" fill="none" stroke="currentColor" stroke-width="1.8" stroke-linejoin="round"/>
    <path d="M10 19h4" fill="none" stroke="currentColor" stroke-width="1.8" stroke-linecap="round"/>
    <path d="M12 1v2.5M3 12h2.5M18.5 12H21M5.7 5.7l1.8 1.8M16.5 16.5l1.8 1.8M18.3 5.7l-1.8 1.8M7.5 16.5l-1.8 1.8" fill="none" stroke="currentColor" stroke-width="1.5" stroke-linecap="round"/>
  </symbol>
  <symbol id="icon-community" viewBox="0 0 24 24">
    <circle cx="9" cy="9" r="2.4" fill="none" stroke="currentColor" stroke-width="1.8"/>
    <circle cx="15" cy="9" r="2.4" fill="none" stroke="currentColor" stroke-width="1.8"/>
    <path d="M5.5 19a4.8 4.8 0 0 1 7-4.2A4.8 4.8 0 0 1 19.5 19" fill="none" stroke="currentColor" stroke-width="1.8" stroke-linecap="round"/>
  </symbol>
  <symbol id="icon-accessibility" viewBox="0 0 24 24">
    <circle cx="12" cy="5" r="1.6" fill="none" stroke="currentColor" stroke-width="1.8"/>
    <path d="M6 8h12" fill="none" stroke="currentColor" stroke-width="1.8" stroke-linecap="round"/>
    <path d="M9 8l-1 6h8l-1-6" fill="none" stroke="currentColor" stroke-width="1.8" stroke-linejoin="round"/>
    <path d="M12 14v5" fill="none" stroke="currentColor" stroke-width="1.8" stroke-linecap="round"/>
  </symbol>
  <symbol id="icon-global" viewBox="0 0 24 24">
    <circle cx="12" cy="12" r="9" fill="none" stroke="currentColor" stroke-width="1.8"/>
    <path d="M3 12h18" fill="none" stroke="currentColor" stroke-width="1.8" stroke-linecap="round"/>
    <path d="M12 3a13 13 0 0 1 0 18a13 13 0 0 1 0-18Z" fill="none" stroke="currentColor" stroke-width="1.8" stroke-linejoin="round"/>
  </symbol>
</svg>